# MagicaVoxel @ Ephtracy

# group
o 

# material
mtllib Missle.mtl
usemtl palette

# normals
vn -1 0 0
vn 1 0 0
vn 0 0 1
vn 0 0 -1
vn 0 -1 0
vn 0 1 0

# texcoords
vt 0.705078 0.5
vt 0.841797 0.5
vt 0.966797 0.5
vt 0.994141 0.5

# verts
v -1.2 0 0.5
v -1.2 0 0.4
v -1.2 0.1 0.5
v -1.2 0.1 0.4
v -1.1 0 0.6
v -1.1 0 0.5
v -1.1 0 0.4
v -1.1 0 0.3
v -1.1 0.1 0.6
v -1.1 0.1 0.5
v -1.1 0.1 0.4
v -1.1 0.1 0.3
v -1.1 0.2 0.5
v -1.1 0.2 0.4
v -0.7 0 0.7
v -0.7 0 0.6
v -0.7 0 0.3
v -0.7 0 -2.38419e-07
v -0.7 0.1 0.7
v -0.7 0.1 0.6
v -0.7 0.1 0.5
v -0.7 0.1 0.4
v -0.7 0.1 0.3
v -0.7 0.1 -2.38419e-07
v -0.7 0.2 0.6
v -0.7 0.2 0.5
v -0.7 0.2 0.4
v -0.7 0.2 0.3
v -0.6 0 1.3
v -0.6 0 0.7
v -0.6 0 -2.38419e-07
v -0.6 0 -0.2
v -0.6 0.1 1.3
v -0.6 0.1 0.7
v -0.6 0.1 0.6
v -0.6 0.1 0.3
v -0.6 0.1 -2.38419e-07
v -0.6 0.1 -0.2
v -0.6 0.2 0.7
v -0.6 0.2 0.6
v -0.6 0.2 0.3
v -0.6 0.2 -2.38419e-07
v -0.5 0 1.6
v -0.5 0 1.3
v -0.5 0 -0.2
v -0.5 0 -0.3
v -0.5 0.1 1.6
v -0.5 0.1 1.3
v -0.5 0.1 0.7
v -0.5 0.1 -2.38419e-07
v -0.5 0.1 -0.2
v -0.5 0.1 -0.3
v -0.5 0.2 1.3
v -0.5 0.2 0.7
v -0.5 0.2 -2.38419e-07
v -0.5 0.2 -0.2
v -0.4 0 1.8
v -0.4 0 1.6
v -0.4 0.1 1.8
v -0.4 0.1 1.6
v -0.4 0.1 1.3
v -0.4 0.2 1.6
v -0.4 0.2 1.3
v -0.3 0 1.9
v -0.3 0 1.8
v -0.3 0 -0.3
v -0.3 0 -0.5
v -0.3 0.1 1.9
v -0.3 0.1 1.8
v -0.3 0.1 -0.2
v -0.3 0.1 -0.3
v -0.3 0.1 -0.5
v -0.3 0.2 -0.2
v -0.3 0.2 -0.3
v -0.2 0 2
v -0.2 0 1.9
v -0.2 0 -0.5
v -0.2 0 -0.6
v -0.2 0.1 2
v -0.2 0.1 1.9
v -0.2 0.1 -0.5
v -0.2 0.1 -0.6
v -0.0999999 0 -0.6
v -0.0999999 0 -0.7
v -0.0999999 0.1 -0.6
v -0.0999999 0.1 -0.7
v 1.19209e-07 0.1 1.6
v 1.19209e-07 0.1 1.4
v 1.19209e-07 0.2 1.6
v 1.19209e-07 0.2 1.4
v -0.3 0.1 1.6
v -0.3 0.1 1.4
v -0.3 0.2 1.6
v -0.3 0.2 1.4
v -0.0999999 0 2
v -0.0999999 0 1.9
v -0.0999999 0.1 2
v -0.0999999 0.1 1.9
v 1.19209e-07 0 1.9
v 1.19209e-07 0 1.8
v 1.19209e-07 0 -0.3
v 1.19209e-07 0 -0.7
v 1.19209e-07 0.1 1.9
v 1.19209e-07 0.1 1.8
v 1.19209e-07 0.1 -0.2
v 1.19209e-07 0.1 -0.3
v 1.19209e-07 0.1 -0.7
v 1.19209e-07 0.2 -0.2
v 1.19209e-07 0.2 -0.3
v 0.1 0 1.8
v 0.1 0 1.6
v 0.1 0.1 1.8
v 0.1 0.1 1.6
v 0.1 0.1 1.3
v 0.1 0.2 1.6
v 0.1 0.2 1.3
v 0.2 0 1.6
v 0.2 0 1.3
v 0.2 0 -0.2
v 0.2 0 -0.3
v 0.2 0.1 1.6
v 0.2 0.1 1.3
v 0.2 0.1 0.7
v 0.2 0.1 -2.38419e-07
v 0.2 0.1 -0.2
v 0.2 0.1 -0.3
v 0.2 0.2 1.3
v 0.2 0.2 0.7
v 0.2 0.2 -2.38419e-07
v 0.2 0.2 -0.2
v 0.3 0 1.3
v 0.3 0 0.7
v 0.3 0 -2.38419e-07
v 0.3 0 -0.2
v 0.3 0.1 1.3
v 0.3 0.1 0.7
v 0.3 0.1 0.6
v 0.3 0.1 0.3
v 0.3 0.1 -2.38419e-07
v 0.3 0.1 -0.2
v 0.3 0.2 0.7
v 0.3 0.2 0.6
v 0.3 0.2 0.3
v 0.3 0.2 -2.38419e-07
v 0.4 0 0.7
v 0.4 0 0.6
v 0.4 0 0.3
v 0.4 0 -2.38419e-07
v 0.4 0.1 0.7
v 0.4 0.1 0.6
v 0.4 0.1 0.5
v 0.4 0.1 0.4
v 0.4 0.1 0.3
v 0.4 0.1 -2.38419e-07
v 0.4 0.2 0.6
v 0.4 0.2 0.5
v 0.4 0.2 0.4
v 0.4 0.2 0.3
v 0.7 0 0.6
v 0.7 0 0.5
v 0.7 0 0.4
v 0.7 0 0.3
v 0.7 0.1 0.6
v 0.7 0.1 0.5
v 0.7 0.1 0.4
v 0.7 0.1 0.3
v 0.7 0.2 0.5
v 0.7 0.2 0.4
v 0.8 0 0.5
v 0.8 0 0.4
v 0.8 0.1 0.5
v 0.8 0.1 0.4
v -0.2 0 2
v -0.2 0.1 2
v -0.0999999 0 2
v -0.0999999 0.1 2
v -0.3 0 1.9
v -0.3 0.1 1.9
v -0.2 0 1.9
v -0.2 0.1 1.9
v -0.0999999 0 1.9
v -0.0999999 0.1 1.9
v 1.19209e-07 0 1.9
v 1.19209e-07 0.1 1.9
v -0.4 0 1.8
v -0.4 0.1 1.8
v -0.3 0 1.8
v -0.3 0.1 1.8
v 1.19209e-07 0 1.8
v 1.19209e-07 0.1 1.8
v 0.1 0 1.8
v 0.1 0.1 1.8
v -0.5 0 1.6
v -0.5 0.1 1.6
v -0.4 0 1.6
v -0.4 0.1 1.6
v -0.4 0.2 1.6
v -0.3 0.1 1.6
v -0.3 0.2 1.6
v 1.19209e-07 0.1 1.6
v 1.19209e-07 0.2 1.6
v 0.1 0 1.6
v 0.1 0.1 1.6
v 0.1 0.2 1.6
v 0.2 0 1.6
v 0.2 0.1 1.6
v -0.3 0.1 1.4
v -0.3 0.2 1.4
v 1.19209e-07 0.1 1.4
v 1.19209e-07 0.2 1.4
v -0.6 0 1.3
v -0.6 0.1 1.3
v -0.5 0 1.3
v -0.5 0.1 1.3
v -0.5 0.2 1.3
v -0.4 0.1 1.3
v -0.4 0.2 1.3
v 0.1 0.1 1.3
v 0.1 0.2 1.3
v 0.2 0 1.3
v 0.2 0.1 1.3
v 0.2 0.2 1.3
v 0.3 0 1.3
v 0.3 0.1 1.3
v -0.7 0 0.7
v -0.7 0.1 0.7
v -0.6 0 0.7
v -0.6 0.1 0.7
v -0.6 0.2 0.7
v -0.5 0.1 0.7
v -0.5 0.2 0.7
v 0.2 0.1 0.7
v 0.2 0.2 0.7
v 0.3 0 0.7
v 0.3 0.1 0.7
v 0.3 0.2 0.7
v 0.4 0 0.7
v 0.4 0.1 0.7
v -1.1 0 0.6
v -1.1 0.1 0.6
v -0.7 0 0.6
v -0.7 0.1 0.6
v -0.7 0.2 0.6
v -0.6 0.1 0.6
v -0.6 0.2 0.6
v 0.3 0.1 0.6
v 0.3 0.2 0.6
v 0.4 0 0.6
v 0.4 0.1 0.6
v 0.4 0.2 0.6
v 0.7 0 0.6
v 0.7 0.1 0.6
v -1.2 0 0.5
v -1.2 0.1 0.5
v -1.1 0 0.5
v -1.1 0.1 0.5
v -1.1 0.2 0.5
v -0.7 0.1 0.5
v -0.7 0.2 0.5
v 0.4 0.1 0.5
v 0.4 0.2 0.5
v 0.7 0 0.5
v 0.7 0.1 0.5
v 0.7 0.2 0.5
v 0.8 0 0.5
v 0.8 0.1 0.5
v -1.2 0 0.4
v -1.2 0.1 0.4
v -1.1 0 0.4
v -1.1 0.1 0.4
v -1.1 0.2 0.4
v -0.7 0.1 0.4
v -0.7 0.2 0.4
v 0.4 0.1 0.4
v 0.4 0.2 0.4
v 0.7 0 0.4
v 0.7 0.1 0.4
v 0.7 0.2 0.4
v 0.8 0 0.4
v 0.8 0.1 0.4
v -1.1 0 0.3
v -1.1 0.1 0.3
v -0.7 0 0.3
v -0.7 0.1 0.3
v -0.7 0.2 0.3
v -0.6 0.1 0.3
v -0.6 0.2 0.3
v 0.3 0.1 0.3
v 0.3 0.2 0.3
v 0.4 0 0.3
v 0.4 0.1 0.3
v 0.4 0.2 0.3
v 0.7 0 0.3
v 0.7 0.1 0.3
v -0.7 0 -2.38419e-07
v -0.7 0.1 -2.38419e-07
v -0.6 0 -2.38419e-07
v -0.6 0.1 -2.38419e-07
v -0.6 0.2 -2.38419e-07
v -0.5 0.1 -2.38419e-07
v -0.5 0.2 -2.38419e-07
v 0.2 0.1 -2.38419e-07
v 0.2 0.2 -2.38419e-07
v 0.3 0 -2.38419e-07
v 0.3 0.1 -2.38419e-07
v 0.3 0.2 -2.38419e-07
v 0.4 0 -2.38419e-07
v 0.4 0.1 -2.38419e-07
v -0.6 0 -0.2
v -0.6 0.1 -0.2
v -0.5 0 -0.2
v -0.5 0.1 -0.2
v -0.5 0.2 -0.2
v -0.3 0.1 -0.2
v -0.3 0.2 -0.2
v 1.19209e-07 0.1 -0.2
v 1.19209e-07 0.2 -0.2
v 0.2 0 -0.2
v 0.2 0.1 -0.2
v 0.2 0.2 -0.2
v 0.3 0 -0.2
v 0.3 0.1 -0.2
v -0.5 0 -0.3
v -0.5 0.1 -0.3
v -0.3 0 -0.3
v -0.3 0.1 -0.3
v -0.3 0.2 -0.3
v 1.19209e-07 0 -0.3
v 1.19209e-07 0.1 -0.3
v 1.19209e-07 0.2 -0.3
v 0.2 0 -0.3
v 0.2 0.1 -0.3
v -0.3 0 -0.5
v -0.3 0.1 -0.5
v -0.2 0 -0.5
v -0.2 0.1 -0.5
v -0.2 0 -0.6
v -0.2 0.1 -0.6
v -0.0999999 0 -0.6
v -0.0999999 0.1 -0.6
v -0.0999999 0 -0.7
v -0.0999999 0.1 -0.7
v 1.19209e-07 0 -0.7
v 1.19209e-07 0.1 -0.7
v -0.2 0 2
v -0.0999999 0 2
v -0.3 0 1.9
v -0.2 0 1.9
v -0.0999999 0 1.9
v 1.19209e-07 0 1.9
v -0.4 0 1.8
v -0.3 0 1.8
v -0.2 0 1.8
v -0.0999999 0 1.8
v 1.19209e-07 0 1.8
v 0.1 0 1.8
v -0.5 0 1.6
v -0.4 0 1.6
v -0.3 0 1.6
v 1.19209e-07 0 1.6
v 0.1 0 1.6
v 0.2 0 1.6
v -0.3 0 1.4
v 1.19209e-07 0 1.4
v -0.6 0 1.3
v -0.5 0 1.3
v -0.4 0 1.3
v 0.1 0 1.3
v 0.2 0 1.3
v 0.3 0 1.3
v -0.7 0 0.7
v -0.6 0 0.7
v -0.5 0 0.7
v 0.2 0 0.7
v 0.3 0 0.7
v 0.4 0 0.7
v -1.1 0 0.6
v -0.7 0 0.6
v -0.6 0 0.6
v 0.3 0 0.6
v 0.4 0 0.6
v 0.7 0 0.6
v -1.2 0 0.5
v -1.1 0 0.5
v -0.7 0 0.5
v 0.4 0 0.5
v 0.7 0 0.5
v 0.8 0 0.5
v -1.2 0 0.4
v -1.1 0 0.4
v -0.7 0 0.4
v 0.4 0 0.4
v 0.7 0 0.4
v 0.8 0 0.4
v -1.1 0 0.3
v -0.7 0 0.3
v -0.6 0 0.3
v 0.3 0 0.3
v 0.4 0 0.3
v 0.7 0 0.3
v -0.7 0 -2.38419e-07
v -0.6 0 -2.38419e-07
v -0.5 0 -2.38419e-07
v 0.2 0 -2.38419e-07
v 0.3 0 -2.38419e-07
v 0.4 0 -2.38419e-07
v -0.6 0 -0.2
v -0.5 0 -0.2
v -0.3 0 -0.2
v 1.19209e-07 0 -0.2
v 0.2 0 -0.2
v 0.3 0 -0.2
v -0.5 0 -0.3
v -0.3 0 -0.3
v 1.19209e-07 0 -0.3
v 0.2 0 -0.3
v -0.3 0 -0.5
v -0.2 0 -0.5
v -0.2 0 -0.6
v -0.0999999 0 -0.6
v -0.0999999 0 -0.7
v 1.19209e-07 0 -0.7
v -0.2 0.1 2
v -0.0999999 0.1 2
v -0.3 0.1 1.9
v -0.2 0.1 1.9
v -0.0999999 0.1 1.9
v 1.19209e-07 0.1 1.9
v -0.4 0.1 1.8
v -0.3 0.1 1.8
v -0.2 0.1 1.8
v -0.0999999 0.1 1.8
v 1.19209e-07 0.1 1.8
v 0.1 0.1 1.8
v -0.5 0.1 1.6
v -0.4 0.1 1.6
v -0.3 0.1 1.6
v 1.19209e-07 0.1 1.6
v 0.1 0.1 1.6
v 0.2 0.1 1.6
v -0.3 0.1 1.4
v 1.19209e-07 0.1 1.4
v -0.6 0.1 1.3
v -0.5 0.1 1.3
v -0.4 0.1 1.3
v 0.1 0.1 1.3
v 0.2 0.1 1.3
v 0.3 0.1 1.3
v -0.7 0.1 0.7
v -0.6 0.1 0.7
v -0.5 0.1 0.7
v 0.2 0.1 0.7
v 0.3 0.1 0.7
v 0.4 0.1 0.7
v -1.1 0.1 0.6
v -0.7 0.1 0.6
v -0.6 0.1 0.6
v 0.3 0.1 0.6
v 0.4 0.1 0.6
v 0.7 0.1 0.6
v -1.2 0.1 0.5
v -1.1 0.1 0.5
v -0.7 0.1 0.5
v 0.4 0.1 0.5
v 0.7 0.1 0.5
v 0.8 0.1 0.5
v -1.2 0.1 0.4
v -1.1 0.1 0.4
v -0.7 0.1 0.4
v 0.4 0.1 0.4
v 0.7 0.1 0.4
v 0.8 0.1 0.4
v -1.1 0.1 0.3
v -0.7 0.1 0.3
v -0.6 0.1 0.3
v 0.3 0.1 0.3
v 0.4 0.1 0.3
v 0.7 0.1 0.3
v -0.7 0.1 -2.38419e-07
v -0.6 0.1 -2.38419e-07
v -0.5 0.1 -2.38419e-07
v 0.2 0.1 -2.38419e-07
v 0.3 0.1 -2.38419e-07
v 0.4 0.1 -2.38419e-07
v -0.6 0.1 -0.2
v -0.5 0.1 -0.2
v -0.3 0.1 -0.2
v 1.19209e-07 0.1 -0.2
v 0.2 0.1 -0.2
v 0.3 0.1 -0.2
v -0.5 0.1 -0.3
v -0.3 0.1 -0.3
v 1.19209e-07 0.1 -0.3
v 0.2 0.1 -0.3
v -0.3 0.1 -0.5
v -0.2 0.1 -0.5
v -0.2 0.1 -0.6
v -0.0999999 0.1 -0.6
v -0.0999999 0.1 -0.7
v 1.19209e-07 0.1 -0.7
v -0.4 0.2 1.6
v -0.3 0.2 1.6
v 1.19209e-07 0.2 1.6
v 0.1 0.2 1.6
v -0.3 0.2 1.4
v 1.19209e-07 0.2 1.4
v -0.5 0.2 1.3
v -0.4 0.2 1.3
v 0.1 0.2 1.3
v 0.2 0.2 1.3
v -0.6 0.2 0.7
v -0.5 0.2 0.7
v 0.2 0.2 0.7
v 0.3 0.2 0.7
v -0.7 0.2 0.6
v -0.6 0.2 0.6
v 0.3 0.2 0.6
v 0.4 0.2 0.6
v -1.1 0.2 0.5
v -0.7 0.2 0.5
v 0.4 0.2 0.5
v 0.7 0.2 0.5
v -1.1 0.2 0.4
v -0.7 0.2 0.4
v 0.4 0.2 0.4
v 0.7 0.2 0.4
v -0.7 0.2 0.3
v -0.6 0.2 0.3
v 0.3 0.2 0.3
v 0.4 0.2 0.3
v -0.6 0.2 -2.38419e-07
v -0.5 0.2 -2.38419e-07
v 0.2 0.2 -2.38419e-07
v 0.3 0.2 -2.38419e-07
v -0.5 0.2 -0.2
v -0.3 0.2 -0.2
v 1.19209e-07 0.2 -0.2
v 0.2 0.2 -0.2
v -0.3 0.2 -0.3
v 1.19209e-07 0.2 -0.3

# faces
f 3/4/1 2/4/1 1/4/1
f 4/4/1 2/4/1 3/4/1
f 9/4/1 6/4/1 5/4/1
f 10/4/1 6/4/1 9/4/1
f 11/4/1 8/4/1 7/4/1
f 12/4/1 8/4/1 11/4/1
f 13/3/1 11/3/1 10/3/1
f 14/3/1 11/3/1 13/3/1
f 19/4/1 16/4/1 15/4/1
f 20/4/1 16/4/1 19/4/1
f 23/4/1 18/4/1 17/4/1
f 24/4/1 18/4/1 23/4/1
f 25/3/1 21/3/1 20/3/1
f 26/3/1 21/3/1 25/3/1
f 27/3/1 23/3/1 22/3/1
f 28/3/1 23/3/1 27/3/1
f 33/4/1 30/4/1 29/4/1
f 34/4/1 30/4/1 33/4/1
f 37/4/1 32/4/1 31/4/1
f 38/4/1 32/4/1 37/4/1
f 39/3/1 35/3/1 34/3/1
f 40/3/1 35/3/1 39/3/1
f 41/3/1 37/3/1 36/3/1
f 42/3/1 37/3/1 41/3/1
f 47/4/1 44/4/1 43/4/1
f 48/4/1 44/4/1 47/4/1
f 51/4/1 46/4/1 45/4/1
f 52/4/1 46/4/1 51/4/1
f 53/3/1 49/3/1 48/3/1
f 54/3/1 49/3/1 53/3/1
f 55/3/1 51/3/1 50/3/1
f 56/3/1 51/3/1 55/3/1
f 59/4/1 58/4/1 57/4/1
f 60/4/1 58/4/1 59/4/1
f 62/3/1 61/3/1 60/3/1
f 63/3/1 61/3/1 62/3/1
f 68/4/1 65/4/1 64/4/1
f 69/4/1 65/4/1 68/4/1
f 71/2/1 67/2/1 66/2/1
f 72/2/1 67/2/1 71/2/1
f 73/3/1 71/3/1 70/3/1
f 74/3/1 71/3/1 73/3/1
f 79/4/1 76/4/1 75/4/1
f 80/4/1 76/4/1 79/4/1
f 81/2/1 78/2/1 77/2/1
f 82/2/1 78/2/1 81/2/1
f 85/2/1 84/2/1 83/2/1
f 86/2/1 84/2/1 85/2/1
f 89/3/1 88/3/1 87/3/1
f 90/3/1 88/3/1 89/3/1
f 91/3/2 92/3/2 93/3/2
f 93/3/2 92/3/2 94/3/2
f 95/4/2 96/4/2 97/4/2
f 97/4/2 96/4/2 98/4/2
f 99/4/2 100/4/2 103/4/2
f 103/4/2 100/4/2 104/4/2
f 101/2/2 102/2/2 106/2/2
f 106/2/2 102/2/2 107/2/2
f 105/3/2 106/3/2 108/3/2
f 108/3/2 106/3/2 109/3/2
f 110/4/2 111/4/2 112/4/2
f 112/4/2 111/4/2 113/4/2
f 113/3/2 114/3/2 115/3/2
f 115/3/2 114/3/2 116/3/2
f 117/4/2 118/4/2 121/4/2
f 121/4/2 118/4/2 122/4/2
f 119/4/2 120/4/2 125/4/2
f 125/4/2 120/4/2 126/4/2
f 122/3/2 123/3/2 127/3/2
f 127/3/2 123/3/2 128/3/2
f 124/3/2 125/3/2 129/3/2
f 129/3/2 125/3/2 130/3/2
f 131/4/2 132/4/2 135/4/2
f 135/4/2 132/4/2 136/4/2
f 133/4/2 134/4/2 139/4/2
f 139/4/2 134/4/2 140/4/2
f 136/3/2 137/3/2 141/3/2
f 141/3/2 137/3/2 142/3/2
f 138/3/2 139/3/2 143/3/2
f 143/3/2 139/3/2 144/3/2
f 145/4/2 146/4/2 149/4/2
f 149/4/2 146/4/2 150/4/2
f 147/4/2 148/4/2 153/4/2
f 153/4/2 148/4/2 154/4/2
f 150/3/2 151/3/2 155/3/2
f 155/3/2 151/3/2 156/3/2
f 152/3/2 153/3/2 157/3/2
f 157/3/2 153/3/2 158/3/2
f 159/4/2 160/4/2 163/4/2
f 163/4/2 160/4/2 164/4/2
f 161/4/2 162/4/2 165/4/2
f 165/4/2 162/4/2 166/4/2
f 164/3/2 165/3/2 167/3/2
f 167/3/2 165/3/2 168/3/2
f 169/4/2 170/4/2 171/4/2
f 171/4/2 170/4/2 172/4/2
f 175/4/3 174/4/3 173/4/3
f 176/4/3 174/4/3 175/4/3
f 179/4/3 178/4/3 177/4/3
f 180/4/3 178/4/3 179/4/3
f 183/4/3 182/4/3 181/4/3
f 184/4/3 182/4/3 183/4/3
f 187/4/3 186/4/3 185/4/3
f 188/4/3 186/4/3 187/4/3
f 191/4/3 190/4/3 189/4/3
f 192/4/3 190/4/3 191/4/3
f 195/4/3 194/4/3 193/4/3
f 196/4/3 194/4/3 195/4/3
f 198/3/3 197/3/3 196/3/3
f 199/3/3 197/3/3 198/3/3
f 203/3/3 201/3/3 200/3/3
f 204/3/3 201/3/3 203/3/3
f 205/4/3 203/4/3 202/4/3
f 206/4/3 203/4/3 205/4/3
f 209/3/3 208/3/3 207/3/3
f 210/3/3 208/3/3 209/3/3
f 213/4/3 212/4/3 211/4/3
f 214/4/3 212/4/3 213/4/3
f 216/3/3 215/3/3 214/3/3
f 217/3/3 215/3/3 216/3/3
f 221/3/3 219/3/3 218/3/3
f 222/3/3 219/3/3 221/3/3
f 223/4/3 221/4/3 220/4/3
f 224/4/3 221/4/3 223/4/3
f 227/4/3 226/4/3 225/4/3
f 228/4/3 226/4/3 227/4/3
f 230/3/3 229/3/3 228/3/3
f 231/3/3 229/3/3 230/3/3
f 235/3/3 233/3/3 232/3/3
f 236/3/3 233/3/3 235/3/3
f 237/4/3 235/4/3 234/4/3
f 238/4/3 235/4/3 237/4/3
f 241/4/3 240/4/3 239/4/3
f 242/4/3 240/4/3 241/4/3
f 244/3/3 243/3/3 242/3/3
f 245/3/3 243/3/3 244/3/3
f 249/3/3 247/3/3 246/3/3
f 250/3/3 247/3/3 249/3/3
f 251/4/3 249/4/3 248/4/3
f 252/4/3 249/4/3 251/4/3
f 255/4/3 254/4/3 253/4/3
f 256/4/3 254/4/3 255/4/3
f 258/3/3 257/3/3 256/3/3
f 259/3/3 257/3/3 258/3/3
f 263/3/3 261/3/3 260/3/3
f 264/3/3 261/3/3 263/3/3
f 265/4/3 263/4/3 262/4/3
f 266/4/3 263/4/3 265/4/3
f 267/4/4 268/4/4 269/4/4
f 269/4/4 268/4/4 270/4/4
f 270/3/4 271/3/4 272/3/4
f 272/3/4 271/3/4 273/3/4
f 274/3/4 275/3/4 277/3/4
f 277/3/4 275/3/4 278/3/4
f 276/4/4 277/4/4 279/4/4
f 279/4/4 277/4/4 280/4/4
f 281/4/4 282/4/4 283/4/4
f 283/4/4 282/4/4 284/4/4
f 284/3/4 285/3/4 286/3/4
f 286/3/4 285/3/4 287/3/4
f 288/3/4 289/3/4 291/3/4
f 291/3/4 289/3/4 292/3/4
f 290/4/4 291/4/4 293/4/4
f 293/4/4 291/4/4 294/4/4
f 295/4/4 296/4/4 297/4/4
f 297/4/4 296/4/4 298/4/4
f 298/3/4 299/3/4 300/3/4
f 300/3/4 299/3/4 301/3/4
f 302/3/4 303/3/4 305/3/4
f 305/3/4 303/3/4 306/3/4
f 304/4/4 305/4/4 307/4/4
f 307/4/4 305/4/4 308/4/4
f 309/4/4 310/4/4 311/4/4
f 311/4/4 310/4/4 312/4/4
f 312/3/4 313/3/4 314/3/4
f 314/3/4 313/3/4 315/3/4
f 316/3/4 317/3/4 319/3/4
f 319/3/4 317/3/4 320/3/4
f 318/4/4 319/4/4 321/4/4
f 321/4/4 319/4/4 322/4/4
f 323/4/4 324/4/4 325/4/4
f 325/4/4 324/4/4 326/4/4
f 326/3/4 327/3/4 329/3/4
f 329/3/4 327/3/4 330/3/4
f 328/4/4 329/4/4 331/4/4
f 331/4/4 329/4/4 332/4/4
f 333/2/4 334/2/4 335/2/4
f 335/2/4 334/2/4 336/2/4
f 337/2/4 338/2/4 339/2/4
f 339/2/4 338/2/4 340/2/4
f 341/2/4 342/2/4 343/2/4
f 343/2/4 342/2/4 344/2/4
f 348/4/5 346/4/5 345/4/5
f 349/4/5 346/4/5 348/4/5
f 352/4/5 348/4/5 347/4/5
f 353/3/5 349/3/5 348/3/5
f 353/4/5 348/4/5 352/4/5
f 354/4/5 350/4/5 349/4/5
f 354/3/5 349/3/5 353/3/5
f 355/4/5 350/4/5 354/4/5
f 358/4/5 352/4/5 351/4/5
f 359/3/5 353/3/5 352/3/5
f 359/3/5 354/3/5 353/3/5
f 359/4/5 352/4/5 358/4/5
f 359/3/5 355/3/5 354/3/5
f 360/4/5 356/4/5 355/4/5
f 360/3/5 355/3/5 359/3/5
f 361/4/5 356/4/5 360/4/5
f 363/3/5 359/3/5 358/3/5
f 363/1/5 360/1/5 359/1/5
f 364/3/5 361/3/5 360/3/5
f 364/1/5 360/1/5 363/1/5
f 366/4/5 358/4/5 357/4/5
f 367/3/5 363/3/5 358/3/5
f 367/3/5 364/3/5 363/3/5
f 367/4/5 358/4/5 366/4/5
f 368/3/5 361/3/5 364/3/5
f 368/3/5 364/3/5 367/3/5
f 368/4/5 362/4/5 361/4/5
f 369/4/5 362/4/5 368/4/5
f 372/4/5 366/4/5 365/4/5
f 373/3/5 367/3/5 366/3/5
f 373/3/5 368/3/5 367/3/5
f 373/4/5 366/4/5 372/4/5
f 373/3/5 369/3/5 368/3/5
f 374/4/5 370/4/5 369/4/5
f 374/3/5 369/3/5 373/3/5
f 375/4/5 370/4/5 374/4/5
f 378/4/5 372/4/5 371/4/5
f 379/3/5 373/3/5 372/3/5
f 379/3/5 374/3/5 373/3/5
f 379/4/5 372/4/5 378/4/5
f 379/3/5 375/3/5 374/3/5
f 380/4/5 376/4/5 375/4/5
f 380/3/5 375/3/5 379/3/5
f 381/4/5 376/4/5 380/4/5
f 384/4/5 378/4/5 377/4/5
f 385/3/5 379/3/5 378/3/5
f 385/3/5 380/3/5 379/3/5
f 385/4/5 378/4/5 384/4/5
f 385/3/5 381/3/5 380/3/5
f 386/4/5 382/4/5 381/4/5
f 386/3/5 381/3/5 385/3/5
f 387/4/5 382/4/5 386/4/5
f 389/4/5 384/4/5 383/4/5
f 390/3/5 385/3/5 384/3/5
f 390/4/5 384/4/5 389/4/5
f 390/3/5 386/3/5 385/3/5
f 390/3/5 387/3/5 386/3/5
f 391/3/5 387/3/5 390/3/5
f 392/3/5 387/3/5 391/3/5
f 393/4/5 388/4/5 387/4/5
f 393/3/5 387/3/5 392/3/5
f 394/4/5 388/4/5 393/4/5
f 395/4/5 391/4/5 390/4/5
f 396/3/5 392/3/5 391/3/5
f 396/4/5 391/4/5 395/4/5
f 397/3/5 392/3/5 396/3/5
f 398/3/5 392/3/5 397/3/5
f 399/4/5 393/4/5 392/4/5
f 399/3/5 392/3/5 398/3/5
f 400/4/5 393/4/5 399/4/5
f 401/4/5 397/4/5 396/4/5
f 402/3/5 398/3/5 397/3/5
f 402/4/5 397/4/5 401/4/5
f 403/3/5 398/3/5 402/3/5
f 404/3/5 398/3/5 403/3/5
f 405/4/5 399/4/5 398/4/5
f 405/3/5 398/3/5 404/3/5
f 406/4/5 399/4/5 405/4/5
f 407/4/5 403/4/5 402/4/5
f 408/3/5 404/3/5 403/3/5
f 408/4/5 403/4/5 407/4/5
f 409/3/5 404/3/5 408/3/5
f 410/3/5 404/3/5 409/3/5
f 411/4/5 405/4/5 404/4/5
f 411/3/5 404/3/5 410/3/5
f 412/4/5 405/4/5 411/4/5
f 413/4/5 409/4/5 408/4/5
f 414/3/5 410/3/5 409/3/5
f 414/4/5 409/4/5 413/4/5
f 415/4/5 411/4/5 410/4/5
f 415/3/5 410/3/5 414/3/5
f 416/4/5 411/4/5 415/4/5
f 417/2/5 415/2/5 414/2/5
f 418/2/5 415/2/5 417/2/5
f 419/2/5 415/2/5 418/2/5
f 420/2/5 415/2/5 419/2/5
f 421/2/5 415/2/5 420/2/5
f 422/2/5 415/2/5 421/2/5
f 423/4/6 424/4/6 426/4/6
f 426/4/6 424/4/6 427/4/6
f 425/4/6 426/4/6 430/4/6
f 426/3/6 427/3/6 431/3/6
f 430/4/6 426/4/6 431/4/6
f 427/4/6 428/4/6 432/4/6
f 431/3/6 427/3/6 432/3/6
f 432/4/6 428/4/6 433/4/6
f 429/4/6 430/4/6 436/4/6
f 430/3/6 431/3/6 437/3/6
f 431/3/6 432/3/6 437/3/6
f 436/4/6 430/4/6 437/4/6
f 432/3/6 433/3/6 437/3/6
f 433/4/6 434/4/6 438/4/6
f 437/3/6 433/3/6 438/3/6
f 438/4/6 434/4/6 439/4/6
f 437/1/6 438/1/6 441/1/6
f 441/1/6 438/1/6 442/1/6
f 435/4/6 436/4/6 444/4/6
f 444/4/6 436/4/6 445/4/6
f 439/4/6 440/4/6 446/4/6
f 446/4/6 440/4/6 447/4/6
f 443/4/6 444/4/6 450/4/6
f 450/4/6 444/4/6 451/4/6
f 447/4/6 448/4/6 452/4/6
f 452/4/6 448/4/6 453/4/6
f 449/4/6 450/4/6 456/4/6
f 456/4/6 450/4/6 457/4/6
f 453/4/6 454/4/6 458/4/6
f 458/4/6 454/4/6 459/4/6
f 455/4/6 456/4/6 462/4/6
f 462/4/6 456/4/6 463/4/6
f 459/4/6 460/4/6 464/4/6
f 464/4/6 460/4/6 465/4/6
f 461/4/6 462/4/6 467/4/6
f 467/4/6 462/4/6 468/4/6
f 465/4/6 466/4/6 471/4/6
f 471/4/6 466/4/6 472/4/6
f 468/4/6 469/4/6 473/4/6
f 473/4/6 469/4/6 474/4/6
f 470/4/6 471/4/6 477/4/6
f 477/4/6 471/4/6 478/4/6
f 474/4/6 475/4/6 479/4/6
f 479/4/6 475/4/6 480/4/6
f 476/4/6 477/4/6 483/4/6
f 483/4/6 477/4/6 484/4/6
f 480/4/6 481/4/6 485/4/6
f 485/4/6 481/4/6 486/4/6
f 482/4/6 483/4/6 489/4/6
f 489/4/6 483/4/6 490/4/6
f 486/4/6 487/4/6 491/4/6
f 491/4/6 487/4/6 492/4/6
f 488/4/6 489/4/6 493/4/6
f 493/4/6 489/4/6 494/4/6
f 492/2/6 493/2/6 495/2/6
f 495/2/6 493/2/6 496/2/6
f 496/2/6 493/2/6 497/2/6
f 497/2/6 493/2/6 498/2/6
f 498/2/6 493/2/6 499/2/6
f 499/2/6 493/2/6 500/2/6
f 501/3/6 502/3/6 505/3/6
f 503/3/6 504/3/6 506/3/6
f 501/3/6 505/3/6 508/3/6
f 505/3/6 506/3/6 508/3/6
f 506/3/6 504/3/6 509/3/6
f 508/3/6 506/3/6 509/3/6
f 507/3/6 508/3/6 512/3/6
f 509/3/6 510/3/6 512/3/6
f 508/3/6 509/3/6 512/3/6
f 512/3/6 510/3/6 513/3/6
f 511/3/6 512/3/6 516/3/6
f 513/3/6 514/3/6 516/3/6
f 512/3/6 513/3/6 516/3/6
f 516/3/6 514/3/6 517/3/6
f 515/3/6 516/3/6 520/3/6
f 517/3/6 518/3/6 520/3/6
f 516/3/6 517/3/6 520/3/6
f 520/3/6 518/3/6 521/3/6
f 519/3/6 520/3/6 523/3/6
f 521/3/6 522/3/6 523/3/6
f 520/3/6 521/3/6 523/3/6
f 523/3/6 522/3/6 524/3/6
f 524/3/6 522/3/6 525/3/6
f 525/3/6 522/3/6 526/3/6
f 524/3/6 525/3/6 527/3/6
f 527/3/6 525/3/6 528/3/6
f 528/3/6 525/3/6 529/3/6
f 529/3/6 525/3/6 530/3/6
f 528/3/6 529/3/6 531/3/6
f 531/3/6 529/3/6 532/3/6
f 532/3/6 529/3/6 533/3/6
f 533/3/6 529/3/6 534/3/6
f 532/3/6 533/3/6 535/3/6
f 535/3/6 533/3/6 536/3/6
f 536/3/6 533/3/6 537/3/6
f 537/3/6 533/3/6 538/3/6
f 536/3/6 537/3/6 539/3/6
f 539/3/6 537/3/6 540/3/6
